<mxfile host="app.diagrams.net" modified="2023-10-16T21:36:18.884Z" agent="Mozilla/5.0 (Macintosh; Intel Mac OS X 10_15_7) AppleWebKit/605.1.15 (KHTML, like Gecko) Version/17.0 Safari/605.1.15" etag="KUpII8Lj4cHCCNgwCa1a" version="22.0.4" type="github">
  <diagram name="Seite-1" id="J-BOVn1iKQ4Y1poRMYDQ">
    <mxGraphModel dx="939" dy="647" grid="1" gridSize="10" guides="1" tooltips="1" connect="1" arrows="1" fold="1" page="1" pageScale="1" pageWidth="827" pageHeight="1169" math="0" shadow="0">
      <root>
        <mxCell id="0" />
        <mxCell id="1" parent="0" />
        <mxCell id="RHcV1GjL3mxqpXdkQetu-12" style="edgeStyle=orthogonalEdgeStyle;rounded=0;orthogonalLoop=1;jettySize=auto;html=1;entryX=0.5;entryY=0;entryDx=0;entryDy=0;" edge="1" parent="1" source="RHcV1GjL3mxqpXdkQetu-1" target="RHcV1GjL3mxqpXdkQetu-2">
          <mxGeometry relative="1" as="geometry" />
        </mxCell>
        <mxCell id="RHcV1GjL3mxqpXdkQetu-13" value="" style="edgeStyle=orthogonalEdgeStyle;rounded=0;orthogonalLoop=1;jettySize=auto;html=1;" edge="1" parent="1" source="RHcV1GjL3mxqpXdkQetu-1" target="RHcV1GjL3mxqpXdkQetu-3">
          <mxGeometry relative="1" as="geometry" />
        </mxCell>
        <mxCell id="RHcV1GjL3mxqpXdkQetu-14" style="edgeStyle=orthogonalEdgeStyle;rounded=0;orthogonalLoop=1;jettySize=auto;html=1;" edge="1" parent="1" source="RHcV1GjL3mxqpXdkQetu-1" target="RHcV1GjL3mxqpXdkQetu-4">
          <mxGeometry relative="1" as="geometry" />
        </mxCell>
        <mxCell id="RHcV1GjL3mxqpXdkQetu-1" value="Datos de Entrenamiento" style="rounded=1;whiteSpace=wrap;html=1;fillColor=#f8cecc;strokeColor=#b85450;" vertex="1" parent="1">
          <mxGeometry x="320" y="60" width="120" height="60" as="geometry" />
        </mxCell>
        <mxCell id="RHcV1GjL3mxqpXdkQetu-18" style="edgeStyle=orthogonalEdgeStyle;rounded=0;orthogonalLoop=1;jettySize=auto;html=1;entryX=0.5;entryY=0;entryDx=0;entryDy=0;" edge="1" parent="1" source="RHcV1GjL3mxqpXdkQetu-2" target="RHcV1GjL3mxqpXdkQetu-6">
          <mxGeometry relative="1" as="geometry" />
        </mxCell>
        <mxCell id="RHcV1GjL3mxqpXdkQetu-2" value="Árbol" style="rounded=1;whiteSpace=wrap;html=1;fillColor=#dae8fc;strokeColor=#6c8ebf;" vertex="1" parent="1">
          <mxGeometry x="120" y="160" width="120" height="60" as="geometry" />
        </mxCell>
        <mxCell id="RHcV1GjL3mxqpXdkQetu-17" style="edgeStyle=orthogonalEdgeStyle;rounded=0;orthogonalLoop=1;jettySize=auto;html=1;entryX=0.5;entryY=0;entryDx=0;entryDy=0;" edge="1" parent="1" source="RHcV1GjL3mxqpXdkQetu-3" target="RHcV1GjL3mxqpXdkQetu-7">
          <mxGeometry relative="1" as="geometry" />
        </mxCell>
        <mxCell id="RHcV1GjL3mxqpXdkQetu-3" value="Regresión" style="rounded=1;whiteSpace=wrap;html=1;fillColor=#d5e8d4;strokeColor=#82b366;" vertex="1" parent="1">
          <mxGeometry x="320" y="160" width="120" height="70" as="geometry" />
        </mxCell>
        <mxCell id="RHcV1GjL3mxqpXdkQetu-15" style="edgeStyle=orthogonalEdgeStyle;rounded=0;orthogonalLoop=1;jettySize=auto;html=1;entryX=0.5;entryY=0;entryDx=0;entryDy=0;" edge="1" parent="1" source="RHcV1GjL3mxqpXdkQetu-4" target="RHcV1GjL3mxqpXdkQetu-8">
          <mxGeometry relative="1" as="geometry" />
        </mxCell>
        <mxCell id="RHcV1GjL3mxqpXdkQetu-4" value="Random Forest" style="rounded=1;whiteSpace=wrap;html=1;fillColor=#ffe6cc;strokeColor=#d79b00;" vertex="1" parent="1">
          <mxGeometry x="520" y="160" width="120" height="60" as="geometry" />
        </mxCell>
        <mxCell id="RHcV1GjL3mxqpXdkQetu-21" style="edgeStyle=orthogonalEdgeStyle;rounded=0;orthogonalLoop=1;jettySize=auto;html=1;entryX=0;entryY=0.75;entryDx=0;entryDy=0;" edge="1" parent="1" source="RHcV1GjL3mxqpXdkQetu-6" target="RHcV1GjL3mxqpXdkQetu-9">
          <mxGeometry relative="1" as="geometry" />
        </mxCell>
        <mxCell id="RHcV1GjL3mxqpXdkQetu-6" value="Resultado" style="rounded=1;whiteSpace=wrap;html=1;fillColor=#dae8fc;strokeColor=#6c8ebf;" vertex="1" parent="1">
          <mxGeometry x="120" y="320" width="120" height="60" as="geometry" />
        </mxCell>
        <mxCell id="RHcV1GjL3mxqpXdkQetu-19" style="edgeStyle=orthogonalEdgeStyle;rounded=0;orthogonalLoop=1;jettySize=auto;html=1;entryX=0.5;entryY=0;entryDx=0;entryDy=0;" edge="1" parent="1" source="RHcV1GjL3mxqpXdkQetu-7" target="RHcV1GjL3mxqpXdkQetu-9">
          <mxGeometry relative="1" as="geometry" />
        </mxCell>
        <mxCell id="RHcV1GjL3mxqpXdkQetu-7" value="Resultado" style="rounded=1;whiteSpace=wrap;html=1;fillColor=#d5e8d4;strokeColor=#82b366;" vertex="1" parent="1">
          <mxGeometry x="320" y="320" width="120" height="60" as="geometry" />
        </mxCell>
        <mxCell id="RHcV1GjL3mxqpXdkQetu-20" style="edgeStyle=orthogonalEdgeStyle;rounded=0;orthogonalLoop=1;jettySize=auto;html=1;entryX=1;entryY=0.75;entryDx=0;entryDy=0;" edge="1" parent="1" source="RHcV1GjL3mxqpXdkQetu-8" target="RHcV1GjL3mxqpXdkQetu-9">
          <mxGeometry relative="1" as="geometry" />
        </mxCell>
        <mxCell id="RHcV1GjL3mxqpXdkQetu-8" value="Resultado" style="rounded=1;whiteSpace=wrap;html=1;fillColor=#ffe6cc;strokeColor=#d79b00;" vertex="1" parent="1">
          <mxGeometry x="520" y="320" width="120" height="60" as="geometry" />
        </mxCell>
        <mxCell id="RHcV1GjL3mxqpXdkQetu-22" value="" style="edgeStyle=orthogonalEdgeStyle;rounded=0;orthogonalLoop=1;jettySize=auto;html=1;" edge="1" parent="1" source="RHcV1GjL3mxqpXdkQetu-9" target="RHcV1GjL3mxqpXdkQetu-10">
          <mxGeometry relative="1" as="geometry" />
        </mxCell>
        <mxCell id="RHcV1GjL3mxqpXdkQetu-9" value="Voto por mayoría" style="rounded=1;whiteSpace=wrap;html=1;fillColor=#e1d5e7;strokeColor=#9673a6;" vertex="1" parent="1">
          <mxGeometry x="320" y="420" width="120" height="60" as="geometry" />
        </mxCell>
        <mxCell id="RHcV1GjL3mxqpXdkQetu-10" value="Predicción" style="rounded=1;whiteSpace=wrap;html=1;fillColor=#0050ef;fontColor=#ffffff;strokeColor=#001DBC;" vertex="1" parent="1">
          <mxGeometry x="320" y="520" width="120" height="60" as="geometry" />
        </mxCell>
      </root>
    </mxGraphModel>
  </diagram>
</mxfile>
